<?xml version="1.0" encoding="utf-8"?>
<!-- Generator: Adobe Illustrator 26.5.0, SVG Export Plug-In . SVG Version: 6.00 Build 0)  -->
<svg version="1.1" id="Layer_1" xmlns="http://www.w3.org/2000/svg" xmlns:xlink="http://www.w3.org/1999/xlink" x="0px" y="0px"
	 viewBox="0 0 1514.6 309.4" style="enable-background:new 0 0 1514.6 309.4;" xml:space="preserve">
<style type="text/css">
	.st0{fill:#3A4259;}
	.st1{fill:#B1BE20;}
	.st2{fill:#4095AF;}
	.st3{fill:#C42E28;}
	.st4{fill:#757B8B;}
</style>
<g>
	<path class="st0" d="M908.6,96.2c0-5.9,1.3-11.4,3.5-16.4h-19.9c-9,0-17.7,2.2-26.1,6.6c-8.4,4.4-14.9,10.1-19.4,17V80.4h-36.1
		v168.1h38.8v-92.7c0-12.6,3.9-22.8,11.8-30.7c7.9-7.9,18.2-11.8,31-11.8h20.2v-0.2C910,108.1,908.6,102.3,908.6,96.2z"/>
	<path class="st0" d="M119.8,61.6h-0.3l-68.7,187H10l91.7-235.9h26.2c5.8,0,11,3.6,13.1,9l88,226.9h-41.1L119.8,61.6z"/>
	<g>
		<polygon class="st0" points="1464,248.6 1464,226.9 1454.8,226.9 1454.8,223.7 1477,223.7 1477,226.9 1467.7,226.9 1467.7,248.6 
					"/>
		<polygon class="st0" points="1504.6,248.6 1500.9,248.6 1500.9,227.4 1493.7,243.2 1491.5,243.2 1484.3,227.4 1484.3,248.6 
			1480.9,248.6 1480.9,223.7 1485.9,223.7 1492.8,238.7 1499.5,223.7 1504.6,223.7 		"/>
	</g>
	<path class="st0" d="M251.9,233.4c-12.5-11.9-18.7-27.6-18.7-47.2v-42.5c0-13,2.8-24.5,8.4-34.5c5.6-10,13.6-17.7,23.9-23.2
		c10.3-5.5,22.2-8.3,35.7-8.3h21.2c19.3,0,34.9,5.6,46.7,16.7c11.8,11.1,17.7,25.8,17.7,44h-38.1c0-8.1-2.4-14.7-7.2-19.7
		c-4.8-5.1-11.2-7.6-19-7.6h-20.8c-8.8,0-15.9,3.3-21.4,9.8c-5.5,6.5-8.3,14.9-8.3,25.3v37.7c0,10.1,2.7,18.3,8.3,24.6
		c5.5,6.3,12.7,9.4,21.7,9.4h20.8c8.3,0,15-3,20.1-9.1c5.1-6.1,7.6-13.9,7.6-23.6h38.1c0,19.8-6,35.7-18,47.8
		c-12,12.1-27.9,18.2-47.7,18.2h-21.2C280.9,251.3,264.4,245.3,251.9,233.4z"/>
	<path class="st0" d="M422.7,235.8c-8.8-8.5-13.1-22-13.1-40.4v-81.5V29.5h38.7v50.9h43.8v33.4h-43.8V194c0,7.4,1.5,12.8,4.4,16.2
		c2.9,3.4,7.5,5.1,13.8,5.1h25.6v33.4h-27.6C445.4,248.6,431.5,244.3,422.7,235.8z"/>
	<path class="st0" d="M627.2,240.3c-12.7-7.3-22.5-17.6-29.5-31c-7-13.4-10.4-28.8-10.4-46.3V98.3c0-17.5,3.5-33,10.6-46.3
		c7.1-13.4,17.1-23.7,30-31c12.9-7.3,27.8-11,44.6-11h31.3c16.2,0,30.4,3.3,42.8,9.9c12.4,6.6,21.9,16,28.6,28
		c6.7,12,10.1,25.9,10.1,41.6h-38.7c0-13.5-3.9-24.3-11.8-32.5c-7.9-8.2-18.2-12.3-31-12.3h-31.3c-13.7,0-24.8,5-33.2,15
		c-8.4,10-12.6,23.3-12.6,39.9v62c0,16.6,4.1,29.9,12.3,39.9c8.2,10,19,15,32.5,15h32.6c13,0,23.7-4.6,32-13.8
		c8.3-9.2,12.5-21,12.5-35.4v-11.5h-29.7c-8.3,0-15-6.7-15-15v-19.3h83.5v45.8c0,16.4-3.5,30.9-10.4,43.6
		c-7,12.7-16.7,22.6-29.3,29.6c-12.6,7.1-27.1,10.6-43.5,10.6h-32.6C654.7,251.3,639.9,247.6,627.2,240.3z"/>
	<path class="st0" d="M1106.1,80.4h36.1v19.9c4.7-6.7,10.8-12.2,18.4-16.3c7.5-4.2,14.9-6.2,22.1-6.2h22.2
		c19.5,0,35.3,5.9,47.3,17.7c12,11.8,18,27.3,18,46.7v39.1c0,21.1-6,38.1-17.9,50.9c-11.9,12.8-27.7,19.2-47.5,19.2h-22.6
		c-6.5,0-13.3-1.6-20.2-4.9c-7-3.3-15.4-7.6-19.9-13v66h-36.1V80.4z M1200.8,217.9c9.2,0,16.7-3.6,22.4-10.8
		c5.7-7.2,8.6-16.6,8.6-28.3v-34.4c0-9.9-2.8-17.9-8.4-24.1c-5.6-6.2-13-9.3-22.2-9.3h-21.6c-7.6,0-14.7,3-21.1,8.9
		c-6.4,6-11,13.6-13.6,23.1v39.1c1.1,10.6,4.9,19.2,11.3,25.8c6.4,6.6,14.1,9.9,23.1,9.9H1200.8z"/>
	<path class="st0" d="M1288.5,29.5h38.8v69.8c5.2-6.5,11.5-11.7,19-15.7c7.5-3.9,14.9-5.9,22.1-5.9h21.6c17.3,0,31.2,5.5,41.6,16.5
		c10.4,11,15.7,25.5,15.7,43.5v110.9h-38.8V138.7c0-8.1-2.1-14.7-6.2-19.7c-4.2-5.1-9.6-7.6-16.3-7.6h-21.6
		c-8.8,0-16.6,3.3-23.6,9.8c-7,6.5-11.5,15-13.5,25.6v101.8h-38.8V29.5z"/>
	<circle class="st1" cx="949.8" cy="96.2" r="24.3"/>
	<path class="st0" d="M542.6,85.7c-7,0-13.6-1.8-19.4-5v167.8H562V80.7C556.2,83.9,549.6,85.7,542.6,85.7z"/>
	<circle class="st2" cx="542.6" cy="45.5" r="24.3"/>
	<path class="st0" d="M1067.7,95.1c-11.5-10.2-26.6-15.3-45.5-15.3h-35.4c2.2,5,3.5,10.6,3.5,16.4c0,5.8-1.2,11.3-3.4,16.2h35.3
		c7.2,0,13,2.1,17.5,6.4c4.5,4.3,6.7,9.9,6.7,16.9v18.9c-5.6-2.9-12-5.3-19.2-7.1c-7.2-1.8-13.9-2.7-20.2-2.7h-20.9
		c-17.8,0-32.1,4.3-43,12.8c-10.9,8.5-16.3,19.9-16.3,34v12.1c0,14.4,5.2,25.9,15.7,34.5c10.4,8.7,24.2,13,41.3,13h20.9
		c7.9,0,15.8-2.2,23.9-6.6c8.1-4.4,14.8-10.2,20.2-17.4v21.2h36.1V135.7C1084.9,118.8,1079.1,105.3,1067.7,95.1z M1046.5,193.3
		c-2.9,8.3-8,15-15.2,20c-7.2,5.1-15.3,7.6-24.3,7.6h-19.2c-7,0-12.6-1.7-16.8-5.1c-4.3-3.4-6.4-7.9-6.4-13.5V193
		c0-5.4,2.1-9.8,6.2-13.1c4.2-3.4,9.6-5.1,16.3-5.1h21.2c7.6,0,14.9,1,21.9,2.9c7,1.9,12.4,4.4,16.2,7.6V193.3z"/>
	<circle class="st3" cx="119.5" cy="171.8" r="24.3"/>
</g>
</svg>
